<svg width="117" height="81" viewBox="0 0 117 81" fill="none" xmlns="http://www.w3.org/2000/svg">
<path d="M9.13806 8.68398V75.4906C9.13806 77.6381 10.8796 79.3797 13.0271 79.3797H103.292C105.439 79.3797 107.181 77.6381 107.181 75.4906V3.6456C107.181 2.00349 105.85 0.672913 104.208 0.672913H62.6216C60.0712 0.672913 57.7562 2.16665 56.7063 4.49255C56.3712 5.23463 55.6333 5.71129 54.8176 5.71129H12.1105C10.8291 5.71129 9.73852 6.52016 9.31907 7.65581C9.20202 7.97583 9.13806 8.32305 9.13806 8.68398Z" fill="#E7E548"/>
<g opacity="0.25">
<path d="M9.13806 8.82016V75.6268C9.13806 77.7743 10.8796 79.5159 13.0271 79.5159H103.292C105.138 79.5159 106.685 78.2277 107.08 76.501C106.627 76.6889 106.128 76.7923 105.607 76.7923H15.3419C13.1944 76.7923 11.4529 75.0507 11.4529 72.9032V6.09679C11.4529 6.03696 11.4542 5.97823 11.4583 5.91971C10.1292 6.21645 9.13806 7.40256 9.13806 8.82016Z" fill="#4D4D4D"/>
</g>
<g opacity="0.5">
<path d="M9.31903 7.6558C9.47415 7.62992 9.63231 7.61773 9.79569 7.61773H55.3624C56.178 7.61773 56.9162 7.14107 57.251 6.39899C57.5151 5.81202 58.9762 2.98792 61.2599 3.12411H101.893C103.535 3.12411 104.866 4.45446 104.866 6.0968V77.9416C104.866 78.2425 104.832 78.5353 104.765 78.8158C106.183 78.2371 107.181 76.844 107.181 75.218V3.6456C107.181 2.00349 105.851 0.672913 104.208 0.672913H62.6216C60.0712 0.672913 57.7561 2.16665 56.7062 4.49255C56.3712 5.23463 55.6332 5.71129 54.8176 5.71129H12.1105C10.8291 5.71129 9.73848 6.52016 9.31903 7.6558Z" fill="white"/>
</g>
<path d="M104.208 0H62.6216C59.8114 0 57.249 1.65429 56.0932 4.21536C55.8676 4.71487 55.367 5.03794 54.8183 5.03794H12.111C10.5902 5.03794 9.2142 5.9965 8.68685 7.4228C8.53978 7.8268 8.46472 8.25103 8.46472 8.68418V75.4906C8.46472 78.0058 10.5119 80.0528 13.0269 80.0528H103.292C105.588 80.0528 107.493 78.348 107.808 76.1394C107.838 75.9273 107.854 75.7106 107.854 75.4906V3.64493C107.854 1.63514 106.219 0 104.208 0ZM106.507 75.4908C106.507 75.9329 106.417 76.355 106.256 76.7387C105.974 77.4032 105.476 77.9553 104.849 78.3032C104.388 78.5601 103.856 78.7061 103.292 78.7061H13.0269C11.2536 78.7061 9.81139 77.2639 9.81139 75.4906V8.68439C9.81139 8.4094 9.8586 8.14116 9.95172 7.88749C9.98653 7.79438 10.027 7.70452 10.0718 7.61815C10.3614 7.06708 10.8641 6.65852 11.4533 6.4823C11.6632 6.41834 11.8843 6.38461 12.111 6.38461H54.8181C55.8954 6.38461 56.8775 5.75044 57.3198 4.7697C58.2592 2.69008 60.3399 1.34667 62.6216 1.34667H104.208C105.476 1.34667 106.507 2.37811 106.507 3.64515V75.4908Z" fill="black"/>
<path d="M13.3815 75.8724H102.56V12.8536C102.56 11.4204 101.398 10.2584 99.9646 10.2584H15.9767C14.5434 10.2584 13.3815 11.4204 13.3815 12.8536V75.8724Z" fill="white"/>
<path d="M103.146 76.4381H12.7953V12.5075C12.7953 10.9555 14.1039 9.69278 15.7126 9.69278H100.229C101.838 9.69278 103.146 10.9555 103.146 12.5075V76.4381ZM13.9678 75.3068H101.974V12.5075C101.974 11.5792 101.191 10.8243 100.229 10.8243H15.7126C14.7505 10.8243 13.9678 11.5794 13.9678 12.5075V75.3068Z" fill="black"/>
<path d="M13.3817 75.9096H102.56V15.7854C102.56 14.3522 101.398 13.1902 99.9649 13.1902H15.9767C14.5434 13.1902 13.3815 14.3522 13.3815 15.7854L13.3817 75.9096Z" fill="white"/>
<path d="M103.146 76.4755H12.7953V15.4395C12.7953 13.8875 14.1039 12.6248 15.7126 12.6248H100.229C101.838 12.6248 103.146 13.8875 103.146 15.4395V76.4755ZM13.9678 75.344H101.974V15.4393C101.974 14.511 101.191 13.7559 100.229 13.7559H15.7126C14.7505 13.7559 13.9678 14.5112 13.9678 15.4393V75.344Z" fill="black"/>
<path d="M20.1568 75.9096H102.56V19.0511C102.56 17.6179 101.398 16.4559 99.9649 16.4559H15.9767C14.5434 16.4559 13.3815 17.6179 13.3815 19.0511V69.1343C13.3815 72.8763 16.4151 75.9096 20.1568 75.9096Z" fill="white"/>
<path d="M103.146 76.4755H19.4671C15.7883 76.4755 12.7953 73.5874 12.7953 70.0376V18.7052C12.7953 17.1532 14.1039 15.8905 15.7126 15.8905H100.229C101.838 15.8905 103.146 17.1532 103.146 18.7052V76.4755ZM15.7126 17.0218C14.7505 17.0218 13.9678 17.7769 13.9678 18.705V70.0374C13.9678 72.9635 16.4348 75.344 19.4671 75.344H101.974V18.705C101.974 17.7767 101.191 17.0218 100.229 17.0218H15.7126Z" fill="black"/>
<g opacity="0.25">
<path d="M107.854 18.7011V75.4911C107.854 75.711 107.838 75.9277 107.808 76.1398C107.505 76.6685 107.126 77.1343 106.686 77.5237L106.684 77.5248C106.627 77.5763 106.57 77.6257 106.51 77.674L106.509 77.6751C106.315 77.8311 106.112 77.9747 105.899 78.1026C105.898 78.1026 105.897 78.1037 105.897 78.1037C105.556 78.3069 105.193 78.4707 104.811 78.5897C104.337 78.739 103.834 78.8186 103.315 78.8186H13.443C11.7965 78.8186 10.3095 78.0128 9.33642 76.7209C9.31292 76.6907 9.29029 76.658 9.26789 76.6267V76.6256C8.92676 76.1531 8.65285 75.6201 8.46423 75.0375V18.7011H107.854Z" fill="#4D4D4D"/>
</g>
<path d="M0.658981 24.0741L8.85541 75.2652C9.24135 77.6753 11.1778 79.4355 13.4432 79.4355H103.315C105.596 79.4355 107.542 77.6509 107.91 75.2204L115.663 24.0473C115.941 22.2161 114.632 20.5527 112.913 20.5527H3.40519C1.67627 20.5527 0.364628 22.2349 0.658981 24.0741Z" fill="#E7E548"/>
<g opacity="0.25">
<path d="M115.552 23.9355L107.798 75.1082C107.43 77.5391 105.485 79.3235 103.203 79.3235H13.331C11.4589 79.3235 9.69802 76.437 8.96399 74.658C9.35559 74.7725 9.87859 74.8343 10.3007 74.8343C10.3007 74.8343 44.762 74.6339 71.8029 74.3241C90.0645 74.1148 105.475 60.6842 108.18 42.6227L111.399 21.1297C111.435 20.8963 112.567 20.665 112.552 20.4407H112.465C114.184 20.4407 115.829 22.1039 115.552 23.9355Z" fill="#4D4D4D"/>
</g>
<g opacity="0.5">
<path d="M11.9976 78.1833C12.065 78.6008 12.1784 78.9991 12.3309 79.3718C10.6215 78.869 9.28161 77.3381 8.96724 75.3775L0.771036 24.1868C0.4769 22.3473 1.78898 20.6649 3.51725 20.6649H113.025C114.525 20.6649 115.712 21.9309 115.806 23.4708H6.54758C4.81932 23.4708 3.50724 25.1531 3.80137 26.9926L11.9976 78.1833Z" fill="white"/>
</g>
<g opacity="0.25">
<path d="M18.6111 50.3862L16.2878 50.4893C15.2315 50.5361 14.3372 49.7179 14.2904 48.6616L13.6593 34.43C13.6125 33.3737 14.4307 32.4794 15.487 32.4326L17.8102 32.3295C18.8665 32.2827 19.7608 33.1009 19.8076 34.1572L20.4387 48.3888C20.4857 49.4453 19.6675 50.3394 18.6111 50.3862Z" fill="white"/>
</g>
<g opacity="0.25">
<path d="M18.9013 56.9294L16.578 57.0325C15.5217 57.0793 14.6274 56.2611 14.5806 55.2049L14.5231 53.9071C14.4764 52.8509 15.2946 51.9565 16.3508 51.9097L18.6741 51.8066C19.7304 51.7599 20.6247 52.5781 20.6715 53.6343L20.7289 54.932C20.7759 55.9883 19.9577 56.8824 18.9013 56.9294Z" fill="white"/>
</g>
<path d="M103.315 80.053H13.4434C10.8669 80.053 8.68114 78.0804 8.24603 75.3629L0.0493862 24.172C-0.127922 23.0653 0.17709 21.9538 0.88567 21.1227C1.52877 20.3684 2.44707 19.9359 3.40497 19.9359H112.913C113.866 19.9359 114.78 20.3643 115.423 21.1116C116.131 21.9346 116.441 23.0385 116.274 24.1404L108.52 75.3135C108.104 78.0595 105.915 80.053 103.315 80.053ZM1.26857 23.9766L9.46521 75.1676C9.80395 77.2831 11.4772 78.8184 13.4437 78.8184H103.316C105.3 78.8184 106.976 77.2663 107.3 75.128L115.054 23.9549C115.167 23.2093 114.96 22.4661 114.487 21.9161C114.074 21.4351 113.515 21.1701 112.914 21.1701H3.40519C2.8006 21.1701 2.23952 21.4377 1.82529 21.9233C1.35146 22.479 1.14848 23.2273 1.26857 23.9766Z" fill="black"/>
</svg>
