<svg width="116" height="136" viewBox="0 0 116 136" fill="none" xmlns="http://www.w3.org/2000/svg">
<path d="M102.704 113.642L35.1814 128.025C33.7164 128.337 32.2762 127.403 31.964 125.938L10.475 25.0594C10.1631 23.5945 11.0975 22.1542 12.5624 21.8421L80.085 7.45857C81.55 7.14667 82.9902 8.081 83.3024 9.54596L104.791 110.425C105.103 111.889 104.169 113.33 102.704 113.642Z" fill="white"/>
<path d="M83.9106 8.65617L105.709 110.99C106.025 112.472 105.076 113.935 103.594 114.25L34.6164 128.944C33.1341 129.259 31.6715 128.311 31.3558 126.828L9.55692 24.4947C9.24121 23.0126 10.1901 21.5497 11.6724 21.234L80.65 6.54072C82.1323 6.22503 83.5949 7.17386 83.9106 8.65617ZM32.8824 126.503C33.0189 127.143 33.6509 127.553 34.2913 127.417L103.269 112.724C103.909 112.587 104.32 111.955 104.183 111.315L82.3843 8.98126C82.2478 8.3408 81.6158 7.93096 80.9753 8.06739L11.9977 22.7607C11.3572 22.8971 10.9471 23.5292 11.0836 24.1696L32.8824 126.503Z" fill="black"/>
<path d="M25.3633 40.1532L25.5957 41.2439L79.1462 29.8341L78.9138 28.7435L25.3633 40.1532Z" fill="#75746F"/>
<path d="M27.1446 48.5148L27.377 49.6055L80.9275 38.1957L80.6951 37.105L27.1446 48.5148Z" fill="#75746F"/>
<path d="M28.9262 56.8762L29.1586 57.9669L82.7091 46.5571L82.4767 45.4665L28.9262 56.8762Z" fill="#75746F"/>
<path d="M30.7075 65.2377L30.9398 66.3284L84.4904 54.9186L84.258 53.8279L30.7075 65.2377Z" fill="#75746F"/>
<path d="M32.489 73.5989L32.7213 74.6896L86.2719 63.2798L86.0395 62.1891L32.489 73.5989Z" fill="#75746F"/>
<path d="M34.2705 81.9604L34.5029 83.0511L88.0534 71.6413L87.821 70.5506L34.2705 81.9604Z" fill="#75746F"/>
<path d="M36.0518 90.3219L36.2841 91.4126L89.8347 80.0028L89.6023 78.9121L36.0518 90.3219Z" fill="#75746F"/>
<path d="M37.8334 98.6833L38.0658 99.7739L62.9892 94.4636L62.7568 93.3729L37.8334 98.6833Z" fill="#75746F"/>
<path d="M94.9134 103.744L74.2941 108.137L74.6556 109.834L95.2749 105.44L94.9134 103.744Z" fill="#75746F"/>
</svg>
