<svg width="141" height="37" viewBox="0 0 141 37" fill="none" xmlns="http://www.w3.org/2000/svg">
<path d="M48.7631 22.2417C48.7631 23.6201 49.4656 24.3093 50.8705 24.3093C51.5863 24.3093 52.3285 24.2033 53.0973 23.9912V7.68828H41.725V3.95053H68.764V7.68828H57.4315V10.5115C57.9882 10.3259 58.8364 10.2331 59.9763 10.2331C63.9792 10.2331 65.9806 12.155 65.9806 15.9988V22.0031C65.9806 23.9117 65.5432 25.3565 64.6684 26.3373C63.7936 27.2916 62.3621 27.7688 60.374 27.7688C60.2149 27.7688 59.9233 27.7422 59.4992 27.6892V23.5538L60.0559 23.5936C60.7186 23.5671 61.156 23.408 61.368 23.1165C61.6066 22.7983 61.7259 22.2947 61.7259 21.6054V16.1181C61.7259 15.4554 61.5536 14.9517 61.209 14.6071C60.8909 14.2625 60.3342 14.0902 59.5389 14.0902C58.7702 14.0902 58.0677 14.1697 57.4315 14.3288V30.3136H53.0973V27.6892C51.8248 27.9013 50.9501 28.0073 50.4729 28.0073C48.4317 28.0073 46.9207 27.5567 45.9399 26.6554C44.9856 25.7276 44.5084 24.3226 44.5084 22.4405V15.9988C44.5084 12.155 46.4966 10.2331 50.4729 10.2331C50.685 10.2331 51.0826 10.2729 51.6658 10.3524V14.1299L51.0296 14.0902C50.1813 14.0902 49.5848 14.2625 49.2402 14.6071C48.9221 14.9517 48.7631 15.4686 48.7631 16.1579V22.2417ZM67.9799 7.68828H64.5205V3.95053H75.8928V7.68828H72.4334V30.3136H67.9799V7.68828ZM93.6978 3.95053V7.68828H90.2384V30.3136H85.8247V7.68828H81.6097V17.2315C81.6097 19.1931 81.0796 20.6909 80.0192 21.7247C78.9589 22.7586 77.4611 23.2755 75.526 23.2755C74.4921 23.2755 73.8559 23.2357 73.6173 23.1562V18.9015C74.2535 18.9546 74.6777 18.9811 74.8897 18.9811C76.4273 18.9811 77.196 18.2918 77.196 16.9134V7.68828H71.5894V3.95053H93.6978Z" fill="#343434"/>
<path d="M100.972 17.1917C100.972 16.3169 100.84 15.5879 100.575 15.0047H96.4791V10.9489H109.203V7.68828H91.4291V3.95053H117.076V7.68828H113.617V30.3136H109.203V14.7662H105.068C105.307 15.2698 105.426 15.9988 105.426 16.9531V22.1224C105.426 24.2166 104.79 25.8071 103.517 26.894C102.271 27.9543 100.482 28.4845 98.1491 28.4845C96.9032 28.4845 95.7236 28.3387 94.6102 28.0471V24.031C95.7766 24.3226 96.9032 24.4684 97.9901 24.4684C99.9782 24.4684 100.972 23.6466 100.972 22.0031V17.1917ZM116.286 7.68828H112.827V3.95053H124.199V7.68828H120.74V30.3136H116.286V7.68828ZM122.918 16.7543C122.918 14.7927 123.461 13.2551 124.548 12.1418C125.635 11.0284 127.292 10.4717 129.518 10.4717C130.658 10.4717 131.705 10.591 132.66 10.8296V7.68828H119.896V3.95053H140.573V7.68828H137.113V30.3136H132.66V14.8854C131.917 14.6734 131.056 14.5673 130.075 14.5673C128.246 14.5673 127.331 15.3361 127.331 16.8736V24.2696C127.331 24.9853 127.517 25.489 127.888 25.7806C128.259 26.0722 128.909 26.218 129.836 26.218V30.3931H128.803C126.655 30.3931 125.131 29.9292 124.23 29.0014C123.355 28.0471 122.918 26.6024 122.918 24.6672V16.7543Z" fill="#BA4800"/>
<g clip-path="url(#clip0_58_6947)">
<rect width="36.4497" height="36.4497" rx="18.2249" fill="#BA4800"/>
<path d="M14.9711 16.2688C15.0996 18.0326 15.2979 18.9083 15.6833 19.7763C15.8851 20.2308 16.1373 20.6826 16.455 21.2561C16.7732 21.8305 17.1584 22.5306 17.6277 23.4863L17.7847 23.4418C17.7286 22.9037 17.4793 22.1986 17.1895 21.3906C16.8982 20.5782 16.5629 19.6525 16.3238 18.6594C15.8659 16.7578 15.7651 14.6197 17.0101 12.5799C16.945 13.9188 17.2082 15.1473 17.9466 16.2606L18.0955 16.1904C17.4604 14.0901 17.0747 12.2136 18.3887 10.4241C18.3409 10.7258 18.2837 11.1128 18.2627 11.5175C18.2336 12.0812 18.2726 12.6947 18.5122 13.1743L18.6695 13.1328C18.6022 11.8882 18.7418 10.748 19.0607 9.58969C19.067 9.76015 19.07 9.86953 19.0761 9.93825C19.0789 9.96887 19.0824 9.99543 19.0877 10.0176C19.0928 10.0392 19.1012 10.0651 19.1189 10.0866C19.1391 10.111 19.1648 10.1218 19.187 10.1269C19.2044 10.1309 19.2237 10.1324 19.2326 10.1329L19.3153 10.1377L19.3201 10.055C19.3536 9.5221 19.4109 9.05655 19.567 8.6261C19.6978 8.26515 19.8996 7.92665 20.2204 7.59432C20.1062 8.22566 20.1167 8.86624 20.2279 9.55562L20.2749 9.84764L20.3862 9.57372C20.4738 9.35819 20.4994 9.1192 20.5135 8.87021C20.5278 8.61758 20.53 8.35587 20.5664 8.07493C20.6384 7.52085 20.8426 6.90317 21.5397 6.25198C21.8495 5.96265 22.1636 5.70632 22.4635 5.45236C22.7622 5.19945 23.0468 4.94943 23.2902 4.67556C23.7005 4.21406 23.9924 3.68563 24.0573 2.96397C24.3726 3.99534 24.2169 4.8223 24.0909 5.2494C24.0554 5.36994 24.0222 5.45875 24.0022 5.51261C23.9973 5.52595 23.9929 5.53827 23.9895 5.54797C23.9867 5.55615 23.9824 5.56771 23.9803 5.57815C23.9797 5.58118 23.9789 5.58622 23.9785 5.59202C23.9783 5.59639 23.9777 5.60866 23.9821 5.62307C23.9874 5.63997 24.0045 5.67048 24.0427 5.67974C24.0726 5.68687 24.0956 5.67516 24.1018 5.67185C24.116 5.66428 24.1259 5.6539 24.1276 5.65205C24.1314 5.64799 24.1354 5.64409 24.1384 5.64036C24.1589 5.61455 24.2081 5.54245 24.2868 5.43488C24.3463 5.35357 24.4271 5.24886 24.5306 5.11654C24.6208 5.78101 24.6445 6.23103 24.6237 6.54441C24.6011 6.88662 24.5292 7.059 24.4496 7.16757C24.4092 7.22259 24.3646 7.26457 24.3161 7.30615C24.2692 7.34637 24.2129 7.39109 24.163 7.44343C24.056 7.55561 23.9741 7.70604 23.9489 7.98761L23.9325 8.17812L24.0823 8.05974C24.2949 7.89356 24.5075 7.72724 24.7252 7.55705C24.7526 7.90227 24.6914 8.11983 24.6136 8.26023C24.5247 8.42067 24.412 8.48898 24.347 8.5403L24.437 8.67878C24.4876 8.65269 24.5776 8.60074 24.6587 8.56514C24.6663 8.56183 24.674 8.56013 24.6806 8.55743C24.561 9.47585 24.4885 10.149 24.4098 10.6714C24.329 11.2081 24.2432 11.5727 24.0973 11.8657C23.9527 12.1562 23.7463 12.3829 23.4141 12.6364C23.0797 12.8915 22.6233 13.1696 21.981 13.5678C21.442 13.9021 21.1324 14.1788 20.9354 14.4227C20.7394 14.6656 20.6565 14.873 20.5741 15.0576C20.5617 15.0765 20.5543 15.0892 20.5464 15.1011C20.5411 15.1091 20.5276 15.1279 20.5219 15.1483C20.5179 15.1627 20.5159 15.1823 20.5226 15.2031C20.5285 15.2212 20.5392 15.233 20.5442 15.2385L20.5602 15.2548L20.6315 15.3331L20.6908 15.2458C21.1447 14.5694 21.8109 14.2747 22.5034 13.966C23.1105 13.6954 23.7361 13.4129 24.2083 12.8393C24.2016 12.9155 24.1948 12.9883 24.1882 13.0556C24.173 13.2095 24.1555 13.3423 24.1256 13.4558C24.0959 13.5687 24.0548 13.6585 23.9957 13.7293C23.9372 13.7994 23.857 13.8554 23.741 13.8947C23.3398 14.0305 23.0094 14.1224 22.7491 14.2199C22.5499 14.2945 22.3805 14.3764 22.2318 14.4915L22.0896 14.6181L22.0843 14.6254C22.06 14.6568 22.0352 14.6883 22.0109 14.7197L21.8578 14.9168L22.0983 14.8506C22.1363 14.8401 22.1741 14.8281 22.2121 14.8175C23.0412 14.7051 23.328 14.6635 23.4808 14.6495C23.5543 14.6428 23.5952 14.6429 23.6529 14.6449C23.6962 14.6464 23.7497 14.6469 23.8316 14.6486C23.6938 15.2478 23.5427 15.8954 22.8117 16.5823C22.4822 16.8918 21.992 17.3063 21.4925 17.7511C20.9957 18.1936 20.4917 18.6647 20.1416 19.0785C19.83 19.4468 19.6642 19.8182 19.5972 20.0433C19.5804 20.0996 19.5686 20.1489 19.5632 20.1873C19.5605 20.2062 19.5596 20.2249 19.5599 20.2414C19.56 20.2496 19.5603 20.2591 19.5622 20.2687C19.5638 20.2774 19.5676 20.292 19.5771 20.3066C19.5878 20.323 19.6092 20.3436 19.6422 20.3472C19.6718 20.3504 19.694 20.3375 19.7045 20.3303C19.7244 20.3165 19.7381 20.2972 19.7458 20.2847C19.7625 20.2573 19.7791 20.216 19.7984 20.1636C20.1833 19.5697 20.644 19.2004 21.1295 18.9036C21.3738 18.7543 21.6242 18.6233 21.876 18.4912C22.1268 18.3596 22.3795 18.2269 22.624 18.0738C22.8513 17.9316 23.0653 17.7606 23.2741 17.598C23.2078 17.7962 23.0867 18.0132 22.9254 18.2436C22.7041 18.5595 22.4167 18.8915 22.121 19.2292C21.8265 19.5656 21.5232 19.908 21.2755 20.2379C21.0287 20.5666 20.8306 20.8922 20.7522 21.197L20.7005 21.3983L20.8764 21.2875C21.4955 20.898 22.166 20.5579 22.7292 20.0544C23.001 19.8113 23.2121 19.4881 23.3679 19.21C23.4104 19.1343 23.4465 19.0602 23.4811 18.9928C23.4251 19.4601 23.3313 19.8731 23.1407 20.2531C22.8956 20.7419 22.4874 21.184 21.7809 21.6146C20.5307 22.3764 19.3958 23.1083 19.0355 24.7678L19.1841 24.8338C19.5412 24.3383 19.7749 23.8472 20.6087 23.4267C21.2057 23.1257 21.678 22.9704 22.0708 22.5134C22.0035 22.7957 21.8977 23.0094 21.752 23.2006C21.5496 23.4663 21.2698 23.6925 20.8956 23.9975C19.2984 25.3 19.0376 26.8858 18.9269 28.0001C18.7284 24.5929 19.3922 19.818 20.0761 16.6115C20.8959 12.7674 22.0853 10.078 22.649 8.46203L22.5026 8.38805L22.4211 8.50267L22.4161 8.51289C17.43 18.3481 18.0222 24.7019 18.475 31.8706C18.5524 33.0963 18.6454 33.9947 18.7108 34.5919C18.7186 34.6635 18.7247 34.7311 18.7316 34.794C18.7124 34.7005 18.6928 34.5992 18.6729 34.4912C18.5729 33.9468 18.4666 33.2381 18.3678 32.5215C18.1704 31.0887 18.0037 29.6266 17.9778 29.3859L17.977 29.3761L17.9732 29.3667C17.7928 28.8686 17.4637 28.5177 17.0735 28.2308C16.6863 27.9459 16.2304 27.7183 15.7999 27.475C15.0288 27.0392 14.3164 26.5408 14.0621 25.5284C14.4163 25.9357 14.9209 26.0589 15.4213 26.1485C15.7357 26.2049 16.0655 26.2906 16.4209 26.3127L16.4667 26.158C16.1863 25.9981 15.9107 25.8877 15.6549 25.7899C15.3971 25.6913 15.1634 25.6066 14.9569 25.4946C14.7524 25.3836 14.5785 25.2478 14.4416 25.0517C14.3044 24.855 14.2005 24.5918 14.1456 24.2209C14.0544 23.6049 13.8947 23.0756 13.7269 22.592C13.5582 22.1057 13.3845 21.6738 13.2577 21.2368C13.1318 20.8028 13.0557 20.3719 13.083 19.9C13.1063 19.497 13.2061 19.0606 13.4189 18.5636C13.6854 20.2689 14.7411 21.1881 15.7113 22.1582L15.8483 22.0742C15.6307 21.4055 15.3797 20.8619 15.1499 20.3815C14.9193 19.8993 14.7131 19.4857 14.5813 19.0679C14.4504 18.653 14.3939 18.236 14.4622 17.752C14.5222 17.3275 14.6781 16.8474 14.9711 16.2688Z" fill="#EAEAEA" stroke="white" stroke-width="0.16568"/>
<path d="M34.7929 31.691L19.8569 35.5399C19.7498 35.839 19.4315 36.4497 18.6263 36.4497C17.8202 36.4497 17.5171 35.8375 17.4172 35.5392L2.48521 31.691C2.91382 31.2886 3.42321 30.8455 4.01416 30.3875C9.55817 31.2189 14.1578 32.9155 17.8138 35.475C17.5739 35.2722 12.6792 31.1931 5.10408 29.5936C4.57152 29.4808 4.02615 29.3806 3.46799 29.2945C4.10452 28.8177 4.82741 28.3299 5.63584 27.8586C6.14121 28.0175 6.63381 28.1874 7.1152 28.3659C11.6596 30.0547 15.1589 32.5844 18.2 35.4828C15.1493 32.1592 11.7748 29.592 8.0236 27.9009C7.5622 27.6918 7.096 27.4969 6.6226 27.316C6.16599 27.1406 5.7046 26.9778 5.2368 26.8282C5.97488 26.4219 6.77852 26.0328 7.64936 25.6805C8.11317 25.8582 8.56576 26.0484 9.00798 26.2504C9.47177 26.4618 9.92278 26.6873 10.3634 26.9246C13.726 28.7402 16.432 31.3004 18.639 34.4266C20.8461 31.3004 23.5521 28.7402 26.9147 26.9246C27.3553 26.6873 27.8063 26.4618 28.2701 26.2504C28.7123 26.0484 29.1649 25.8582 29.6287 25.6805H29.6295C30.4995 26.0328 31.304 26.4219 32.0413 26.8282C31.5735 26.9778 31.1121 27.1406 30.6555 27.316C30.1821 27.4969 29.7159 27.6918 29.2545 27.9009C25.5033 29.592 22.1287 32.1592 19.078 35.4828C22.1191 32.5844 25.6184 30.0547 30.1629 28.3659C30.6443 28.1874 31.1361 28.0175 31.6414 27.8586H31.6422C32.4507 28.3299 33.1728 28.8177 33.8093 29.2945C33.2511 29.3806 32.7066 29.4808 32.174 29.5936C24.5989 31.1931 19.7042 35.2722 19.4643 35.475C23.1203 32.9155 27.7199 31.2189 33.264 30.3875C33.8549 30.8455 34.3643 31.2886 34.7929 31.691Z" fill="#EAEAEA"/>
</g>
<defs>
<clipPath id="clip0_58_6947">
<rect width="36.4497" height="36.4497" rx="18.2249" fill="white"/>
</clipPath>
</defs>
</svg>
